<svg xmlns="http://www.w3.org/2000/svg" width="16" height="16" viewBox="0 0 16 16"><defs><style>.a{fill:none;}.b{fill:#c61a1d;}</style></defs><g transform="translate(0 -0.5)"><rect class="a" width="16" height="16" transform="translate(0 0.5)"/><path class="b" d="M6.063.563a5.5,5.5,0,1,1-5.5,5.5A5.5,5.5,0,0,1,6.063.563ZM5.422,3.747,7.1,5.353H3.046a.531.531,0,0,0-.532.532V6.24a.531.531,0,0,0,.532.532H7.1L5.422,8.378a.533.533,0,0,0-.009.761l.244.242a.53.53,0,0,0,.752,0L9.351,6.44a.53.53,0,0,0,0-.752L6.408,2.743a.53.53,0,0,0-.752,0l-.244.242a.535.535,0,0,0,.009.763Z" transform="translate(1.647 2.647)"/></g></svg>