<svg xmlns="http://www.w3.org/2000/svg" width="20" height="23.333" viewBox="0 0 20 23.333"><defs><style>.a{fill:#005c9f;}.b{fill:#b2d2e5;}.c{fill:#c61a1d;fill-rule:evenodd;}</style></defs><g transform="translate(-30 -114)"><g transform="translate(30 114)"><path class="a" d="M7.833,2.25h8.333V3.917H7.833A1.667,1.667,0,0,0,6.167,5.583V22.25a1.667,1.667,0,0,0,1.667,1.667H21.167a1.667,1.667,0,0,0,1.667-1.667V10.583H24.5V22.25a3.333,3.333,0,0,1-3.333,3.333H7.833A3.333,3.333,0,0,1,4.5,22.25V5.583A3.333,3.333,0,0,1,7.833,2.25Z" transform="translate(-4.5 -2.25)"/><path class="b" d="M20.25,8.083V2.25l8.333,8.333H22.75A2.5,2.5,0,0,1,20.25,8.083Z" transform="translate(-8.583 -2.25)"/><path class="c" d="M11.25,23.25a.833.833,0,0,1,.833-.833h3.333a.833.833,0,0,1,0,1.667H12.083A.833.833,0,0,1,11.25,23.25Zm0-3.333a.833.833,0,0,1,.833-.833h8.333a.833.833,0,0,1,0,1.667H12.083A.833.833,0,0,1,11.25,19.917Zm0-3.333a.833.833,0,0,1,.833-.833h8.333a.833.833,0,0,1,0,1.667H12.083A.833.833,0,0,1,11.25,16.583Z" transform="translate(-6.25 -5.75)"/></g></g></svg>