<svg xmlns="http://www.w3.org/2000/svg" width="10" height="16" viewBox="0 0 10 16"><defs><style>.a{fill:#c61a1d;}</style></defs><g transform="translate(-6.75 -3.375)"><path class="a" d="M15.5,10.125H12.156v5.2l1.5-1.364a.432.432,0,0,1,.575,0,.358.358,0,0,1,0,.532L12.038,16.49a.431.431,0,0,1-.284.107.415.415,0,0,1-.156-.029.439.439,0,0,1-.128-.078h0L9.281,14.5a.356.356,0,0,1,0-.532.429.429,0,0,1,.575,0l1.5,1.364v-5.2H8a1.209,1.209,0,0,0-1.25,1.156v6.938A1.209,1.209,0,0,0,8,19.375h7.5a1.209,1.209,0,0,0,1.25-1.156V11.281A1.209,1.209,0,0,0,15.5,10.125Z"/><path class="a" d="M18.914,4.289a.914.914,0,0,0-1.828,0v5.836h1.828Z" transform="translate(-6.25)"/></g></svg>